<mxfile host="Electron" agent="Mozilla/5.0 (Windows NT 10.0; Win64; x64) AppleWebKit/537.36 (KHTML, like Gecko) draw.io/24.7.8 Chrome/128.0.6613.36 Electron/32.0.1 Safari/537.36" version="24.7.8">
  <diagram id="yPxyJZ8AM_hMuL3Unpa9" name="complex gitflow">
    <mxGraphModel dx="827" dy="483" grid="1" gridSize="10" guides="1" tooltips="1" connect="1" arrows="1" fold="1" page="1" pageScale="1" pageWidth="1100" pageHeight="850" math="0" shadow="0">
      <root>
        <mxCell id="0" />
        <mxCell id="1" parent="0" />
        <mxCell id="sHTynhsndrYKRBMtrq2K-9" value="h3" style="sketch=0;aspect=fixed;pointerEvents=1;shadow=0;dashed=0;html=1;strokeColor=none;labelPosition=center;verticalLabelPosition=bottom;verticalAlign=top;align=center;fillColor=#00188D;shape=mxgraph.azure.laptop" vertex="1" parent="1">
          <mxGeometry x="830" y="405" width="50" height="30" as="geometry" />
        </mxCell>
        <mxCell id="sHTynhsndrYKRBMtrq2K-10" value="h2" style="sketch=0;aspect=fixed;pointerEvents=1;shadow=0;dashed=0;html=1;strokeColor=none;labelPosition=center;verticalLabelPosition=bottom;verticalAlign=top;align=center;fillColor=#00188D;shape=mxgraph.azure.laptop" vertex="1" parent="1">
          <mxGeometry x="830" y="350" width="50" height="30" as="geometry" />
        </mxCell>
        <mxCell id="sHTynhsndrYKRBMtrq2K-11" value="sw5" style="sketch=0;aspect=fixed;pointerEvents=1;shadow=0;dashed=0;html=1;strokeColor=none;labelPosition=center;verticalLabelPosition=bottom;verticalAlign=top;align=center;fillColor=#00188D;shape=mxgraph.mscae.enterprise.gateway" vertex="1" parent="1">
          <mxGeometry x="600" y="380" width="50" height="50" as="geometry" />
        </mxCell>
        <mxCell id="sHTynhsndrYKRBMtrq2K-12" value="sw3" style="sketch=0;aspect=fixed;pointerEvents=1;shadow=0;dashed=0;html=1;strokeColor=none;labelPosition=center;verticalLabelPosition=bottom;verticalAlign=top;align=center;fillColor=#00188D;shape=mxgraph.mscae.enterprise.gateway" vertex="1" parent="1">
          <mxGeometry x="520" y="460" width="50" height="50" as="geometry" />
        </mxCell>
        <mxCell id="sHTynhsndrYKRBMtrq2K-13" value="sw1" style="sketch=0;aspect=fixed;pointerEvents=1;shadow=0;dashed=0;html=1;strokeColor=none;labelPosition=center;verticalLabelPosition=bottom;verticalAlign=top;align=center;fillColor=#00188D;shape=mxgraph.mscae.enterprise.gateway" vertex="1" parent="1">
          <mxGeometry x="420" y="426.25" width="50" height="50" as="geometry" />
        </mxCell>
        <mxCell id="sHTynhsndrYKRBMtrq2K-14" value="sw4" style="sketch=0;aspect=fixed;pointerEvents=1;shadow=0;dashed=0;html=1;strokeColor=none;labelPosition=center;verticalLabelPosition=bottom;verticalAlign=top;align=center;fillColor=#00188D;shape=mxgraph.mscae.enterprise.gateway" vertex="1" parent="1">
          <mxGeometry x="570" y="300" width="50" height="50" as="geometry" />
        </mxCell>
        <mxCell id="sHTynhsndrYKRBMtrq2K-15" value="sw2" style="sketch=0;aspect=fixed;pointerEvents=1;shadow=0;dashed=0;html=1;strokeColor=none;labelPosition=center;verticalLabelPosition=bottom;verticalAlign=top;align=center;fillColor=#00188D;shape=mxgraph.mscae.enterprise.gateway" vertex="1" parent="1">
          <mxGeometry x="470" y="290" width="50" height="50" as="geometry" />
        </mxCell>
        <mxCell id="sHTynhsndrYKRBMtrq2K-16" value="sw6" style="sketch=0;aspect=fixed;pointerEvents=1;shadow=0;dashed=0;html=1;strokeColor=none;labelPosition=center;verticalLabelPosition=bottom;verticalAlign=top;align=center;fillColor=#00188D;shape=mxgraph.mscae.enterprise.gateway" vertex="1" parent="1">
          <mxGeometry x="730" y="390" width="50" height="50" as="geometry" />
        </mxCell>
        <mxCell id="sHTynhsndrYKRBMtrq2K-17" value="sw0" style="sketch=0;aspect=fixed;pointerEvents=1;shadow=0;dashed=0;html=1;strokeColor=none;labelPosition=center;verticalLabelPosition=bottom;verticalAlign=top;align=center;fillColor=#00188D;shape=mxgraph.mscae.enterprise.gateway" vertex="1" parent="1">
          <mxGeometry x="360" y="331.25" width="50" height="50" as="geometry" />
        </mxCell>
        <mxCell id="sHTynhsndrYKRBMtrq2K-18" value="h4" style="sketch=0;aspect=fixed;pointerEvents=1;shadow=0;dashed=0;html=1;strokeColor=none;labelPosition=center;verticalLabelPosition=bottom;verticalAlign=top;align=center;fillColor=#00188D;shape=mxgraph.azure.laptop" vertex="1" parent="1">
          <mxGeometry x="830" y="460" width="50" height="30" as="geometry" />
        </mxCell>
        <mxCell id="sHTynhsndrYKRBMtrq2K-19" value="h0" style="sketch=0;aspect=fixed;pointerEvents=1;shadow=0;dashed=0;html=1;strokeColor=none;labelPosition=center;verticalLabelPosition=bottom;verticalAlign=top;align=center;fillColor=#00188D;shape=mxgraph.azure.computer" vertex="1" parent="1">
          <mxGeometry x="270" y="300" width="50" height="45" as="geometry" />
        </mxCell>
        <mxCell id="sHTynhsndrYKRBMtrq2K-20" value="h1" style="sketch=0;aspect=fixed;pointerEvents=1;shadow=0;dashed=0;html=1;strokeColor=none;labelPosition=center;verticalLabelPosition=bottom;verticalAlign=top;align=center;fillColor=#00188D;shape=mxgraph.azure.computer" vertex="1" parent="1">
          <mxGeometry x="270" y="367.5" width="50" height="45" as="geometry" />
        </mxCell>
        <mxCell id="sHTynhsndrYKRBMtrq2K-21" style="rounded=0;orthogonalLoop=1;jettySize=auto;html=1;entryX=1;entryY=0.5;entryDx=0;entryDy=0;entryPerimeter=0;endArrow=none;endFill=0;" edge="1" parent="1" source="sHTynhsndrYKRBMtrq2K-9" target="sHTynhsndrYKRBMtrq2K-16">
          <mxGeometry relative="1" as="geometry" />
        </mxCell>
        <mxCell id="sHTynhsndrYKRBMtrq2K-22" style="edgeStyle=none;shape=connector;rounded=0;orthogonalLoop=1;jettySize=auto;html=1;entryX=0.855;entryY=0.145;entryDx=0;entryDy=0;entryPerimeter=0;strokeColor=default;align=center;verticalAlign=middle;fontFamily=Helvetica;fontSize=11;fontColor=default;labelBackgroundColor=default;endArrow=none;endFill=0;" edge="1" parent="1" source="sHTynhsndrYKRBMtrq2K-10" target="sHTynhsndrYKRBMtrq2K-16">
          <mxGeometry relative="1" as="geometry" />
        </mxCell>
        <mxCell id="sHTynhsndrYKRBMtrq2K-23" style="edgeStyle=none;shape=connector;rounded=0;orthogonalLoop=1;jettySize=auto;html=1;entryX=0.855;entryY=0.855;entryDx=0;entryDy=0;entryPerimeter=0;strokeColor=default;align=center;verticalAlign=middle;fontFamily=Helvetica;fontSize=11;fontColor=default;labelBackgroundColor=default;endArrow=none;endFill=0;" edge="1" parent="1" source="sHTynhsndrYKRBMtrq2K-18" target="sHTynhsndrYKRBMtrq2K-16">
          <mxGeometry relative="1" as="geometry" />
        </mxCell>
        <mxCell id="sHTynhsndrYKRBMtrq2K-24" style="edgeStyle=none;shape=connector;rounded=0;orthogonalLoop=1;jettySize=auto;html=1;exitX=0;exitY=0.5;exitDx=0;exitDy=0;exitPerimeter=0;entryX=1;entryY=0.5;entryDx=0;entryDy=0;entryPerimeter=0;strokeColor=default;align=center;verticalAlign=middle;fontFamily=Helvetica;fontSize=11;fontColor=default;labelBackgroundColor=default;endArrow=none;endFill=0;" edge="1" parent="1" source="sHTynhsndrYKRBMtrq2K-16" target="sHTynhsndrYKRBMtrq2K-11">
          <mxGeometry relative="1" as="geometry" />
        </mxCell>
        <mxCell id="sHTynhsndrYKRBMtrq2K-25" style="edgeStyle=none;shape=connector;rounded=0;orthogonalLoop=1;jettySize=auto;html=1;exitX=0.5;exitY=0;exitDx=0;exitDy=0;exitPerimeter=0;entryX=0.855;entryY=0.855;entryDx=0;entryDy=0;entryPerimeter=0;strokeColor=default;align=center;verticalAlign=middle;fontFamily=Helvetica;fontSize=11;fontColor=default;labelBackgroundColor=default;endArrow=none;endFill=0;" edge="1" parent="1" source="sHTynhsndrYKRBMtrq2K-11" target="sHTynhsndrYKRBMtrq2K-14">
          <mxGeometry relative="1" as="geometry" />
        </mxCell>
        <mxCell id="sHTynhsndrYKRBMtrq2K-26" style="edgeStyle=none;shape=connector;rounded=0;orthogonalLoop=1;jettySize=auto;html=1;exitX=0.5;exitY=1;exitDx=0;exitDy=0;exitPerimeter=0;entryX=1;entryY=0.5;entryDx=0;entryDy=0;entryPerimeter=0;strokeColor=default;align=center;verticalAlign=middle;fontFamily=Helvetica;fontSize=11;fontColor=default;labelBackgroundColor=default;endArrow=none;endFill=0;" edge="1" parent="1" source="sHTynhsndrYKRBMtrq2K-11" target="sHTynhsndrYKRBMtrq2K-12">
          <mxGeometry relative="1" as="geometry" />
        </mxCell>
        <mxCell id="sHTynhsndrYKRBMtrq2K-27" style="edgeStyle=none;shape=connector;rounded=0;orthogonalLoop=1;jettySize=auto;html=1;exitX=0;exitY=0.5;exitDx=0;exitDy=0;exitPerimeter=0;entryX=0.5;entryY=1;entryDx=0;entryDy=0;entryPerimeter=0;strokeColor=default;align=center;verticalAlign=middle;fontFamily=Helvetica;fontSize=11;fontColor=default;labelBackgroundColor=default;endArrow=none;endFill=0;" edge="1" parent="1" source="sHTynhsndrYKRBMtrq2K-12" target="sHTynhsndrYKRBMtrq2K-13">
          <mxGeometry relative="1" as="geometry" />
        </mxCell>
        <mxCell id="sHTynhsndrYKRBMtrq2K-28" style="edgeStyle=none;shape=connector;rounded=0;orthogonalLoop=1;jettySize=auto;html=1;exitX=0;exitY=0.5;exitDx=0;exitDy=0;exitPerimeter=0;entryX=1;entryY=0.5;entryDx=0;entryDy=0;entryPerimeter=0;strokeColor=default;align=center;verticalAlign=middle;fontFamily=Helvetica;fontSize=11;fontColor=default;labelBackgroundColor=default;endArrow=none;endFill=0;" edge="1" parent="1" source="sHTynhsndrYKRBMtrq2K-14" target="sHTynhsndrYKRBMtrq2K-15">
          <mxGeometry relative="1" as="geometry" />
        </mxCell>
        <mxCell id="sHTynhsndrYKRBMtrq2K-29" style="edgeStyle=none;shape=connector;rounded=0;orthogonalLoop=1;jettySize=auto;html=1;exitX=0;exitY=0.5;exitDx=0;exitDy=0;exitPerimeter=0;entryX=0.855;entryY=0.145;entryDx=0;entryDy=0;entryPerimeter=0;strokeColor=default;align=center;verticalAlign=middle;fontFamily=Helvetica;fontSize=11;fontColor=default;labelBackgroundColor=default;endArrow=none;endFill=0;" edge="1" parent="1" source="sHTynhsndrYKRBMtrq2K-15" target="sHTynhsndrYKRBMtrq2K-17">
          <mxGeometry relative="1" as="geometry" />
        </mxCell>
        <mxCell id="sHTynhsndrYKRBMtrq2K-30" style="edgeStyle=none;shape=connector;rounded=0;orthogonalLoop=1;jettySize=auto;html=1;exitX=0.145;exitY=0.145;exitDx=0;exitDy=0;exitPerimeter=0;entryX=0.855;entryY=0.855;entryDx=0;entryDy=0;entryPerimeter=0;strokeColor=default;align=center;verticalAlign=middle;fontFamily=Helvetica;fontSize=11;fontColor=default;labelBackgroundColor=default;endArrow=none;endFill=0;" edge="1" parent="1" source="sHTynhsndrYKRBMtrq2K-13" target="sHTynhsndrYKRBMtrq2K-17">
          <mxGeometry relative="1" as="geometry" />
        </mxCell>
        <mxCell id="sHTynhsndrYKRBMtrq2K-31" style="edgeStyle=none;shape=connector;rounded=0;orthogonalLoop=1;jettySize=auto;html=1;exitX=0.5;exitY=0;exitDx=0;exitDy=0;exitPerimeter=0;entryX=0.5;entryY=1;entryDx=0;entryDy=0;entryPerimeter=0;strokeColor=default;align=center;verticalAlign=middle;fontFamily=Helvetica;fontSize=11;fontColor=default;labelBackgroundColor=default;endArrow=none;endFill=0;" edge="1" parent="1" source="sHTynhsndrYKRBMtrq2K-12" target="sHTynhsndrYKRBMtrq2K-15">
          <mxGeometry relative="1" as="geometry" />
        </mxCell>
        <mxCell id="sHTynhsndrYKRBMtrq2K-33" style="edgeStyle=none;shape=connector;rounded=0;orthogonalLoop=1;jettySize=auto;html=1;exitX=0;exitY=0.5;exitDx=0;exitDy=0;exitPerimeter=0;entryX=1;entryY=0.5;entryDx=0;entryDy=0;entryPerimeter=0;strokeColor=default;align=center;verticalAlign=middle;fontFamily=Helvetica;fontSize=11;fontColor=default;labelBackgroundColor=default;endArrow=none;endFill=0;" edge="1" parent="1" source="sHTynhsndrYKRBMtrq2K-17" target="sHTynhsndrYKRBMtrq2K-19">
          <mxGeometry relative="1" as="geometry" />
        </mxCell>
        <mxCell id="sHTynhsndrYKRBMtrq2K-35" value="Text" style="edgeLabel;html=1;align=center;verticalAlign=middle;resizable=0;points=[];fontFamily=Helvetica;fontSize=11;fontColor=default;labelBackgroundColor=default;" vertex="1" connectable="0" parent="sHTynhsndrYKRBMtrq2K-33">
          <mxGeometry x="0.3886" y="1" relative="1" as="geometry">
            <mxPoint as="offset" />
          </mxGeometry>
        </mxCell>
        <mxCell id="sHTynhsndrYKRBMtrq2K-34" style="edgeStyle=none;shape=connector;rounded=0;orthogonalLoop=1;jettySize=auto;html=1;exitX=0;exitY=0.5;exitDx=0;exitDy=0;exitPerimeter=0;entryX=1;entryY=0.5;entryDx=0;entryDy=0;entryPerimeter=0;strokeColor=default;align=center;verticalAlign=middle;fontFamily=Helvetica;fontSize=11;fontColor=default;labelBackgroundColor=default;endArrow=none;endFill=0;" edge="1" parent="1" source="sHTynhsndrYKRBMtrq2K-17" target="sHTynhsndrYKRBMtrq2K-20">
          <mxGeometry relative="1" as="geometry" />
        </mxCell>
      </root>
    </mxGraphModel>
  </diagram>
</mxfile>
